<svg width="32" height="33" viewBox="0 0 32 33" fill="none" xmlns="http://www.w3.org/2000/svg">
<path d="M13.4453 0.921875C14.9265 -0.307496 17.0735 -0.307496 18.5547 0.921875L30.5547 10.8818C31.4701 11.6417 31.9999 12.7693 32 13.959V29.001C31.9999 31.2101 30.2091 33.001 28 33.001H4C1.79089 33.001 5.15515e-05 31.2101 0 29.001V13.959C0.000110375 12.7693 0.529947 11.6417 1.44531 10.8818L13.4453 0.921875ZM16.0898 10.9893C13.4291 10.9894 11.2716 13.1474 11.2715 15.8096C11.2715 17.5747 12.2211 19.1171 13.6357 19.957V24.998C13.6359 26.3032 14.6939 27.3612 15.999 27.3613C17.3043 27.3613 18.3621 26.3033 18.3623 24.998V20.0605C19.8773 19.2482 20.9082 17.6496 20.9082 15.8096C20.9081 13.1473 18.7508 10.9893 16.0898 10.9893Z" fill="#198BFF"/>
</svg>
