<svg width="25" height="35" viewBox="0 0 25 35" fill="none" xmlns="http://www.w3.org/2000/svg">
<path d="M5.58203 16.752L12.4167 18.5833L9.66969 28.8353C9.16398 30.7227 7.22402 31.8427 5.33668 31.337C3.44933 30.8313 2.3293 28.8913 2.83501 27.004L5.58203 16.752Z" fill="#202020"/>
<path d="M13.1215 2.28918C17.8398 3.55347 20.6399 8.40335 19.3756 13.1217C18.1114 17.8401 13.2615 20.6402 8.54311 19.3759C3.82475 18.1116 1.02466 13.2617 2.28894 8.54335C3.55323 3.82499 8.40311 1.02491 13.1215 2.28918ZM10.7335 3.48129C9.93332 3.26687 9.11082 3.74175 8.8964 4.54195C8.68199 5.34215 9.15686 6.16465 9.95706 6.37906L13.8208 7.41434C14.6209 7.62863 15.4435 7.15382 15.6579 6.35368C15.8723 5.55354 15.3973 4.73105 14.5972 4.51656L10.7335 3.48129Z" fill="#202020"/>
<path d="M8.54297 19.377L11.9603 20.2926L9.67113 28.836C9.16541 30.7233 7.22546 31.8434 5.33811 31.3377L8.54297 19.377Z" fill="#373737"/>
<path d="M11.6289 20.0508L18.671 19.3606L19.6611 29.4638C19.8766 31.6624 18.269 33.6194 16.0704 33.8349L14.9997 33.9398C13.9004 34.0475 12.9219 33.2437 12.8142 32.1444L11.6289 20.0508Z" fill="#0060C2"/>
<path d="M13.5955 3.86189C18.457 3.38543 22.7843 6.94021 23.2608 11.8017C23.7373 16.6632 20.1825 20.9905 15.321 21.467C10.4594 21.9435 6.13215 18.3887 5.65568 13.5272C5.17922 8.66565 8.73401 4.33836 13.5955 3.86189ZM11.7796 5.81788C10.9551 5.89868 10.3523 6.63256 10.4331 7.45703C10.5139 8.28151 11.2477 8.88438 12.0722 8.80357L16.0531 8.41341C16.8775 8.33251 17.4805 7.59867 17.3997 6.77425C17.3189 5.94984 16.5849 5.34702 15.7605 5.42772L11.7796 5.81788Z" fill="#0060C2"/>
<path d="M15.3242 21.4668L18.8452 21.1217L19.708 29.9243C19.8985 31.8689 18.4766 33.5998 16.532 33.7904L15.3242 21.4668Z" fill="#5639FF"/>
</svg>
